<svg width="23" height="25" viewBox="0 0 23 25" fill="none" xmlns="http://www.w3.org/2000/svg">
<path fill-rule="evenodd" clip-rule="evenodd" d="M0.299805 3.69921C0.299805 1.9319 1.73249 0.499207 3.4998 0.499207H19.4998C21.2671 0.499207 22.6998 1.9319 22.6998 3.69921V16.4992C22.6998 18.2665 21.2671 19.6992 19.4998 19.6992H15.9491L16.1446 20.4812L17.4312 21.7678C17.8888 22.2254 18.0257 22.9136 17.7781 23.5115C17.5304 24.1094 16.947 24.4992 16.2999 24.4992H6.69985C6.05271 24.4992 5.46929 24.1094 5.22164 23.5115C4.97399 22.9136 5.11088 22.2254 5.56848 21.7678L6.85511 20.4812L7.05061 19.6992H3.4998C1.73249 19.6992 0.299805 18.2665 0.299805 16.4992V3.69921ZM9.53388 14.8992C9.51032 14.8987 9.48683 14.8987 9.46341 14.8992H3.4998V3.69921H19.4998V14.8992H13.5363C13.5129 14.8987 13.4894 14.8987 13.4658 14.8992H9.53388Z" fill="url(#paint0_linear_472_4439)"/>
<defs>
<linearGradient id="paint0_linear_472_4439" x1="11.4998" y1="5.92778" x2="10.2339" y2="20.3884" gradientUnits="userSpaceOnUse">
<stop stop-color="#FDCD01"/>
<stop offset="1" stop-color="#FF285A"/>
</linearGradient>
</defs>
</svg>
