<svg width="204" height="202" viewBox="0 0 204 202" fill="none" xmlns="http://www.w3.org/2000/svg">
<mask id="path-1-outside-1_209_13563" maskUnits="userSpaceOnUse" x="0" y="-1" width="204" height="203" fill="black">
<rect fill="white" y="-1" width="204" height="203"/>
<path d="M30.7001 138.2C29.232 134.238 29.1584 130.493 31.0071 126.667C25.8092 124.096 22.9977 119.59 22.1708 113.96C21.4539 109.08 23.0242 104.684 26.3167 100.976C20.1008 93.9434 21.007 84.2891 26.9895 78.1387C27.0903 78.0352 27.1712 77.8758 27.2924 77.8339C31.6477 76.3266 29.964 73.1991 29.6755 70.083C29.3588 66.6622 30.4113 63.3502 32.3665 60.3114C35.1354 56.0079 39.0578 53.8881 44.0159 52.9892C43.9492 49.3961 44.7667 45.9442 47.0665 42.9584C50.2376 38.8415 54.0602 35.988 59.533 36.2167C60.8219 36.2706 62.1321 36.3433 63.3977 36.1606C63.8987 36.0883 64.5132 35.4272 64.7221 34.8927C66.9142 29.285 71.1731 26.5129 76.8277 25.2773C81.1511 24.3327 84.9518 25.5158 88.7307 27.3507C96.7899 18.3933 107.684 19.3281 115.098 27.5404C118 24.6489 121.947 25.0008 125.445 25.0739C129.822 25.1655 133.813 27.3337 136.709 30.8775C137.833 32.2522 138.331 34.1547 139.473 35.5067C139.999 36.1304 141.47 36.3701 142.373 36.1628C146.214 35.2809 149.423 36.9309 152.377 38.827C157.387 42.0427 160.066 46.8078 160.107 53.0815C165.225 53.9484 169.197 56.6438 171.968 61.1329C174.82 65.7544 175.06 70.5574 173.037 75.6632C177.702 78.011 180.457 81.9106 181.622 87.1188C182.833 92.53 181.029 96.9931 177.711 101.156C180.884 105.207 182.79 109.6 181.647 115.047C180.537 120.336 177.888 124.259 172.924 126.523C175.64 132.991 174.469 138.791 170.147 143.818C167.995 146.321 165.16 148.188 161.742 148.678C160.434 148.866 160.059 149.437 159.998 150.769C159.725 156.718 155.82 162.591 149.519 164.849C145.587 166.257 142.494 166.504 139.934 165.735C138.384 169.759 136.074 173.133 132.037 175.114C126.776 177.696 121.584 177.899 116.274 175.334C115.767 175.089 114.69 175.195 114.355 175.572C110.612 179.782 105.884 181.417 100.461 180.911C96.2709 180.52 92.5198 178.976 89.6884 175.575C89.3872 175.213 88.3181 175.135 87.8125 175.374C82.2528 178 76.8041 177.725 71.4617 174.831C67.8366 172.868 65.4487 169.817 64.2706 165.825C59.1948 166.754 54.615 165.832 50.5508 162.652C46.5426 159.516 44.314 155.454 44.0181 150.282C43.9865 149.73 43.1262 148.897 42.5235 148.759C36.7255 147.427 32.9357 143.835 30.7001 138.2ZM100.545 85.231C111.422 78.1176 125.755 81.6158 132.321 92.9868C138.383 103.485 136.35 118.446 127.6 127.729C118.183 137.721 99.8538 140.138 87.651 132.996C72.4654 124.108 65.2333 105.715 70.2264 88.6804C75.3465 71.2119 92.3896 58.546 109.481 59.5074C112.686 59.6877 114.991 57.847 115.209 54.9343C115.425 52.0284 113.459 49.8902 110.197 49.6213C101.713 48.9217 93.8241 50.9844 86.3395 54.931C67.5498 64.8386 56.9636 84.4306 59.1031 105.227C61.2013 125.622 79.5514 151.211 111.052 146.458C125.97 144.207 136.883 136.324 142.572 121.944C147.788 108.76 147.12 95.9768 138.43 84.3948C126.938 69.0788 104.448 67.1561 91.2094 80.116C81.9372 89.1932 80.1714 103.816 87.149 113.741C93.8809 123.316 108.262 124.899 115.855 116.852C118.891 113.635 120.359 109.771 119.654 105.304C119.248 102.736 116.972 101.082 114.547 101.268C112.094 101.457 110.227 103.405 110.012 106C109.682 109.991 107.633 111.948 103.663 112.063C98.6861 112.206 94.604 109.036 93.2496 103.975C91.4546 97.2679 94.198 90.0433 100.545 85.231Z"/>
</mask>
<path d="M30.7001 138.2C29.232 134.238 29.1584 130.493 31.0071 126.667C25.8092 124.096 22.9977 119.59 22.1708 113.96C21.4539 109.08 23.0242 104.684 26.3167 100.976C20.1008 93.9434 21.007 84.2891 26.9895 78.1387C27.0903 78.0352 27.1712 77.8758 27.2924 77.8339C31.6477 76.3266 29.964 73.1991 29.6755 70.083C29.3588 66.6622 30.4113 63.3502 32.3665 60.3114C35.1354 56.0079 39.0578 53.8881 44.0159 52.9892C43.9492 49.3961 44.7667 45.9442 47.0665 42.9584C50.2376 38.8415 54.0602 35.988 59.533 36.2167C60.8219 36.2706 62.1321 36.3433 63.3977 36.1606C63.8987 36.0883 64.5132 35.4272 64.7221 34.8927C66.9142 29.285 71.1731 26.5129 76.8277 25.2773C81.1511 24.3327 84.9518 25.5158 88.7307 27.3507C96.7899 18.3933 107.684 19.3281 115.098 27.5404C118 24.6489 121.947 25.0008 125.445 25.0739C129.822 25.1655 133.813 27.3337 136.709 30.8775C137.833 32.2522 138.331 34.1547 139.473 35.5067C139.999 36.1304 141.47 36.3701 142.373 36.1628C146.214 35.2809 149.423 36.9309 152.377 38.827C157.387 42.0427 160.066 46.8078 160.107 53.0815C165.225 53.9484 169.197 56.6438 171.968 61.1329C174.82 65.7544 175.06 70.5574 173.037 75.6632C177.702 78.011 180.457 81.9106 181.622 87.1188C182.833 92.53 181.029 96.9931 177.711 101.156C180.884 105.207 182.79 109.6 181.647 115.047C180.537 120.336 177.888 124.259 172.924 126.523C175.64 132.991 174.469 138.791 170.147 143.818C167.995 146.321 165.16 148.188 161.742 148.678C160.434 148.866 160.059 149.437 159.998 150.769C159.725 156.718 155.82 162.591 149.519 164.849C145.587 166.257 142.494 166.504 139.934 165.735C138.384 169.759 136.074 173.133 132.037 175.114C126.776 177.696 121.584 177.899 116.274 175.334C115.767 175.089 114.69 175.195 114.355 175.572C110.612 179.782 105.884 181.417 100.461 180.911C96.2709 180.52 92.5198 178.976 89.6884 175.575C89.3872 175.213 88.3181 175.135 87.8125 175.374C82.2528 178 76.8041 177.725 71.4617 174.831C67.8366 172.868 65.4487 169.817 64.2706 165.825C59.1948 166.754 54.615 165.832 50.5508 162.652C46.5426 159.516 44.314 155.454 44.0181 150.282C43.9865 149.73 43.1262 148.897 42.5235 148.759C36.7255 147.427 32.9357 143.835 30.7001 138.2ZM100.545 85.231C111.422 78.1176 125.755 81.6158 132.321 92.9868C138.383 103.485 136.35 118.446 127.6 127.729C118.183 137.721 99.8538 140.138 87.651 132.996C72.4654 124.108 65.2333 105.715 70.2264 88.6804C75.3465 71.2119 92.3896 58.546 109.481 59.5074C112.686 59.6877 114.991 57.847 115.209 54.9343C115.425 52.0284 113.459 49.8902 110.197 49.6213C101.713 48.9217 93.8241 50.9844 86.3395 54.931C67.5498 64.8386 56.9636 84.4306 59.1031 105.227C61.2013 125.622 79.5514 151.211 111.052 146.458C125.97 144.207 136.883 136.324 142.572 121.944C147.788 108.76 147.12 95.9768 138.43 84.3948C126.938 69.0788 104.448 67.1561 91.2094 80.116C81.9372 89.1932 80.1714 103.816 87.149 113.741C93.8809 123.316 108.262 124.899 115.855 116.852C118.891 113.635 120.359 109.771 119.654 105.304C119.248 102.736 116.972 101.082 114.547 101.268C112.094 101.457 110.227 103.405 110.012 106C109.682 109.991 107.633 111.948 103.663 112.063C98.6861 112.206 94.604 109.036 93.2496 103.975C91.4546 97.2679 94.198 90.0433 100.545 85.231Z" fill="#FFCB27"/>
<path d="M30.7001 138.2L11.0086 145.497L11.092 145.722L11.1806 145.945L30.7001 138.2ZM31.0071 126.667L49.9153 135.804L58.9685 117.069L40.3174 107.844L31.0071 126.667ZM22.1708 113.96L1.39371 117.012V117.012L22.1708 113.96ZM26.3167 100.976L42.02 114.919L54.3714 101.008L42.0518 87.0692L26.3167 100.976ZM26.9895 78.1387L42.0427 92.7812L42.043 92.7809L26.9895 78.1387ZM27.2924 77.8339L34.1595 97.6794L34.1604 97.6791L27.2924 77.8339ZM29.6755 70.083L8.76489 72.019L8.7649 72.019L29.6755 70.083ZM32.3665 60.3114L14.7061 48.9487L14.7061 48.9487L32.3665 60.3114ZM44.0159 52.9892L47.7623 73.6523L65.344 70.4647L65.0123 52.5993L44.0159 52.9892ZM47.0665 42.9584L30.4296 30.1439L30.4296 30.1439L47.0665 42.9584ZM59.533 36.2167L60.41 15.2351L60.41 15.2351L59.533 36.2167ZM63.3977 36.1606L66.3969 56.9454L66.3969 56.9454L63.3977 36.1606ZM64.7221 34.8927L45.1634 27.247L45.1633 27.2471L64.7221 34.8927ZM76.8277 25.2773L81.3104 45.7933L81.3104 45.7933L76.8277 25.2773ZM88.7307 27.3507L79.5578 46.2415L93.7727 53.1438L104.342 41.3966L88.7307 27.3507ZM115.098 27.5404L99.5101 41.6124L114.291 57.9857L129.919 42.4181L115.098 27.5404ZM125.445 25.0739L125.884 4.07853L125.884 4.07853L125.445 25.0739ZM136.709 30.8775L120.449 44.1661L120.449 44.1661L136.709 30.8775ZM139.473 35.5067L123.429 49.0568L123.429 49.057L139.473 35.5067ZM142.373 36.1628L147.072 56.6302H147.072L142.373 36.1628ZM152.377 38.827L141.033 56.4995L141.033 56.4995L152.377 38.827ZM160.107 53.0815L139.107 53.2194L139.223 70.8434L156.6 73.7866L160.107 53.0815ZM171.968 61.1329L154.097 72.1614V72.1614L171.968 61.1329ZM173.037 75.6632L153.514 67.9255L146.435 85.7855L163.597 94.4218L173.037 75.6632ZM181.622 87.1188L202.116 82.5351V82.5351L181.622 87.1188ZM177.711 101.156L161.29 88.0655L150.947 101.04L161.177 114.103L177.711 101.156ZM181.647 115.047L202.199 119.361V119.361L181.647 115.047ZM172.924 126.523L164.209 107.417L145.674 115.871L153.562 134.654L172.924 126.523ZM170.147 143.818L186.07 157.51L186.07 157.51L170.147 143.818ZM161.742 148.678L164.723 169.465L164.724 169.465L161.742 148.678ZM159.998 150.769L180.976 151.732L180.976 151.732L159.998 150.769ZM149.519 164.849L156.602 184.618L156.602 184.618L149.519 164.849ZM139.934 165.735L145.974 145.622L127.333 140.024L120.337 158.187L139.934 165.735ZM132.037 175.114L141.289 193.967L141.289 193.967L132.037 175.114ZM116.274 175.334L125.407 156.424L125.407 156.424L116.274 175.334ZM114.355 175.572L130.049 189.525L130.049 189.525L114.355 175.572ZM100.461 180.911L98.5106 201.82L98.5107 201.82L100.461 180.911ZM89.6884 175.575L73.5494 189.011L73.5496 189.011L89.6884 175.575ZM87.8125 175.374L78.8413 156.386L78.8412 156.386L87.8125 175.374ZM71.4617 174.831L61.4617 193.298L61.4617 193.298L71.4617 174.831ZM64.2706 165.825L84.4119 159.881L79.0668 141.77L60.4913 145.168L64.2706 165.825ZM50.5508 162.652L63.4922 146.114L63.4921 146.114L50.5508 162.652ZM44.0181 150.282L64.9838 149.083L64.9838 149.083L44.0181 150.282ZM42.5235 148.759L37.8221 169.226L37.8225 169.226L42.5235 148.759ZM100.545 85.231L89.0514 67.6558L88.4401 68.0555L87.8581 68.4968L100.545 85.231ZM132.321 92.9868L114.135 103.488L114.135 103.488L132.321 92.9868ZM127.6 127.729L142.882 142.133L127.6 127.729ZM87.651 132.996L98.2584 114.872L98.2583 114.872L87.651 132.996ZM70.2264 88.6804L50.0742 82.7737L50.0742 82.7737L70.2264 88.6804ZM109.481 59.5074L108.302 80.4743H108.302L109.481 59.5074ZM115.209 54.9343L136.151 56.4963V56.4963L115.209 54.9343ZM110.197 49.6213L111.923 28.6923V28.6923L110.197 49.6213ZM86.3395 54.931L96.1343 73.5068L96.1343 73.5068L86.3395 54.931ZM59.1031 105.227L38.2134 107.377L38.2134 107.377L59.1031 105.227ZM111.052 146.458L107.919 125.693L111.052 146.458ZM142.572 121.944L123.045 114.218V114.218L142.572 121.944ZM138.43 84.3948L155.227 71.7914L155.227 71.7913L138.43 84.3948ZM91.2094 80.116L105.9 95.1222L91.2094 80.116ZM87.149 113.741L104.328 101.663L104.328 101.663L87.149 113.741ZM115.855 116.852L100.581 102.44L100.581 102.44L115.855 116.852ZM119.654 105.304L140.396 102.027L140.396 102.027L119.654 105.304ZM114.547 101.268L112.934 80.3305L112.934 80.3305L114.547 101.268ZM110.012 106L89.0841 104.266V104.266L110.012 106ZM103.663 112.063L103.057 91.0713H103.057L103.663 112.063ZM93.2496 103.975L113.536 98.5463L113.536 98.5463L93.2496 103.975ZM50.3917 130.904C50.3684 130.841 50.6255 131.514 50.6074 132.703C50.5878 133.983 50.2612 135.088 49.9153 135.804L12.099 117.53C7.3527 127.352 7.91084 137.137 11.0086 145.497L50.3917 130.904ZM40.3174 107.844C40.8679 108.116 41.6925 108.732 42.3418 109.691C42.9351 110.568 42.9811 111.135 42.9478 110.908L1.39371 117.012C3.06266 128.374 9.39471 139.405 21.6968 145.49L40.3174 107.844ZM42.9478 110.908C43.0567 111.65 43.0066 112.624 42.6889 113.59C42.3908 114.496 42.0139 114.926 42.02 114.919L10.6133 87.0334C3.78656 94.7221 -0.344896 105.176 1.39371 117.012L42.9478 110.908ZM42.0518 87.0692C42.5964 87.6855 43.1203 88.8799 43.054 90.246C42.9953 91.4534 42.5073 92.3036 42.0427 92.7812L11.9363 63.4963C-1.0391 76.8357 -3.52428 98.9234 10.5816 114.883L42.0518 87.0692ZM42.043 92.7809C42.8821 91.9183 43.4699 91.1616 43.5867 91.0126C43.9431 90.5582 43.5176 91.103 43.3168 91.3458C43.0065 91.7211 42.1572 92.7301 40.8725 93.831C39.5583 94.9571 37.3273 96.5832 34.1595 97.6794L20.4253 57.9885C17.1969 59.1056 14.9103 60.7674 13.5438 61.9384C12.2066 63.0841 11.3081 64.1473 10.9498 64.5806C10.701 64.8815 10.2288 65.4881 10.5379 65.094C10.6074 65.0053 11.1474 64.3074 11.9361 63.4966L42.043 92.7809ZM34.1604 97.6791C37.6568 96.4691 42.1846 94.1669 45.8397 89.6693C49.6874 84.9347 50.9324 79.7936 51.1821 75.909C51.3988 72.5379 50.8766 69.6662 50.731 68.8232C50.4511 67.2024 50.5571 67.8346 50.586 68.147L8.7649 72.019C8.86944 73.1482 9.02113 74.113 9.12635 74.7376C9.17968 75.0541 9.23197 75.3456 9.26689 75.54C9.30772 75.7673 9.32622 75.8697 9.34356 75.9702C9.45873 76.6371 9.13933 75.2257 9.26862 73.2145C9.43093 70.6897 10.2982 66.8079 13.2457 63.181C16.0006 59.7911 19.1057 58.4451 20.4243 57.9888L34.1604 97.6791ZM50.586 68.147C50.8022 70.4822 49.9503 71.7932 50.0269 71.6742L14.7061 48.9487C10.8724 54.9073 7.91528 62.8423 8.76489 72.019L50.586 68.147ZM50.0269 71.6742C49.9147 71.8485 49.6984 72.1412 49.3568 72.476C49.0126 72.8134 48.6331 73.1033 48.2584 73.3304C47.5076 73.7857 47.1585 73.7618 47.7623 73.6523L40.2696 32.3261C30.9778 34.0107 21.3158 38.6758 14.7061 48.9487L50.0269 71.6742ZM65.0123 52.5993C65.0106 52.5053 65.03 52.8733 64.8395 53.5373C64.6332 54.2563 64.2547 55.0573 63.7034 55.773L30.4296 30.1439C24.5446 37.7842 22.8873 46.2545 23.0196 53.3791L65.0123 52.5993ZM63.7034 55.773C64.3142 54.98 64.1513 55.4299 63.0951 56.0521C62.5216 56.3899 61.7773 56.7231 60.9015 56.946C60.0225 57.1697 59.2433 57.223 58.656 57.1984L60.41 15.2351C45.379 14.6068 35.7495 23.2371 30.4296 30.1439L63.7034 55.773ZM58.656 57.1984C59.2843 57.2247 62.7835 57.4668 66.3969 56.9454L60.3985 15.3759C60.7801 15.3208 61.0774 15.2975 61.2633 15.2871C61.3576 15.2818 61.4295 15.2795 61.4749 15.2784C61.5202 15.2774 61.5438 15.2775 61.5411 15.2775C61.5382 15.2775 61.5149 15.2774 61.4651 15.2762C61.4149 15.2751 61.3461 15.2731 61.2499 15.2697C61.1524 15.2662 61.0408 15.2618 60.8979 15.2558C60.8263 15.2528 60.7538 15.2497 60.6709 15.2461C60.5909 15.2427 60.5013 15.2389 60.41 15.2351L58.656 57.1984ZM66.3969 56.9454C73.3159 55.9469 77.5886 51.9721 78.9809 50.5869C80.8492 48.7281 82.9083 46.0494 84.2809 42.5383L45.1633 27.2471C46.3269 24.2705 47.9744 22.1896 49.3579 20.8131C50.1486 20.0264 51.2843 19.0395 52.8118 18.1032C54.2298 17.2339 56.8238 15.8917 60.3984 15.3759L66.3969 56.9454ZM84.2808 42.5384C84.1961 42.7552 83.9877 43.2021 83.5806 43.7484C83.1676 44.3024 82.6717 44.7951 82.1511 45.1892C81.1264 45.9649 80.5473 45.9601 81.3104 45.7933L72.345 4.76136C61.7487 7.07663 50.5535 13.4584 45.1634 27.247L84.2808 42.5384ZM81.3104 45.7933C80.8491 45.8941 80.3466 45.9476 79.8416 45.9443C79.345 45.941 78.9577 45.8837 78.7193 45.8342C78.4933 45.7874 78.4347 45.7546 78.5839 45.8099C78.7407 45.8681 79.0459 45.9929 79.5578 46.2415L97.9035 8.46002C92.4586 5.81615 83.4519 2.33455 72.345 4.76136L81.3104 45.7933ZM104.342 41.3966C104.654 41.0503 104.579 41.2515 103.979 41.5272C103.353 41.8152 102.487 42.0264 101.523 41.9973C99.493 41.9361 98.9357 40.9761 99.5101 41.6124L130.686 13.4684C123.846 5.89233 114.135 0.358812 102.79 0.0164471C91.1542 -0.334681 80.7084 4.87005 73.1194 13.3049L104.342 41.3966ZM129.919 42.4181C128.744 43.588 127.387 44.4838 126.021 45.095C124.719 45.6774 123.66 45.8897 123.121 45.9693C122.622 46.0432 122.421 46.0226 122.805 46.0218C122.983 46.0214 123.22 46.0247 123.601 46.034C123.849 46.0401 124.552 46.0599 125.005 46.0693L125.884 4.07853C125.702 4.07473 110.845 2.13555 100.277 12.6628L129.919 42.4181ZM125.005 46.0693C122.392 46.0147 120.876 44.6891 120.449 44.1661L152.97 17.5888C146.751 9.97828 137.253 4.31634 125.884 4.07853L125.005 46.0693ZM120.449 44.1661C119.731 43.2877 119.317 42.5776 119.182 42.3408C119.082 42.1638 119.031 42.0517 119.296 42.581C119.467 42.9239 119.938 43.8783 120.524 44.8944C121.139 45.9617 122.083 47.4632 123.429 49.0568L155.516 21.9566C156.291 22.8742 156.745 23.6308 156.911 23.9182C157.047 24.1544 157.109 24.2937 156.873 23.8202C156.729 23.533 156.272 22.603 155.727 21.6404C155.148 20.618 154.25 19.1546 152.97 17.5888L120.449 44.1661ZM123.429 49.057C128.285 54.8057 134.491 56.2936 136.565 56.7187C139.378 57.2952 143.083 57.5462 147.072 56.6302L137.674 15.6953C140.76 14.9867 143.278 15.2215 144.998 15.574C146.008 15.7809 147.407 16.1641 149.002 16.9188C150.467 17.6119 153.091 19.0857 155.516 21.9564L123.429 49.057ZM147.072 56.6302C145.974 56.8824 144.829 56.9677 143.717 56.892C142.63 56.8181 141.767 56.6044 141.19 56.4161C140.231 56.1029 139.953 55.8061 141.033 56.4995L163.721 21.1545C160.28 18.9455 150.523 12.7451 137.674 15.6953L147.072 56.6302ZM141.033 56.4995C140.934 56.4357 140.26 55.9423 139.683 54.8886C139.11 53.8419 139.106 53.106 139.107 53.2194L181.106 52.9436C181.019 39.6526 174.778 28.2517 163.721 21.1545L141.033 56.4995ZM156.6 73.7866C156.442 73.7598 155.839 73.6099 155.124 73.1244C154.796 72.9019 154.537 72.6702 154.35 72.4703C154.166 72.2744 154.091 72.1517 154.097 72.1614L189.839 50.1045C183.952 40.5654 174.795 34.2702 163.614 32.3764L156.6 73.7866ZM154.097 72.1614C153.892 71.8297 153.466 70.9202 153.379 69.6359C153.296 68.4191 153.579 67.7615 153.514 67.9255L192.559 83.401C196.79 72.7279 196.498 60.8956 189.839 50.1045L154.097 72.1614ZM163.597 94.4218C163.136 94.1899 162.386 93.6556 161.75 92.7945C161.158 91.9928 161.076 91.4658 161.129 91.7026L202.116 82.5351C199.759 71.9965 193.469 62.4362 182.477 56.9047L163.597 94.4218ZM161.129 91.7026C161.049 91.3473 160.979 90.8126 161.006 90.1544C161.033 89.4958 161.149 88.897 161.3 88.4075C161.587 87.4799 161.876 87.331 161.29 88.0655L194.132 114.246C199.891 107.021 205.171 96.1945 202.116 82.5351L161.129 91.7026ZM161.177 114.103C161.809 114.91 161.564 114.816 161.294 113.97C161.148 113.515 161.027 112.938 160.991 112.289C160.956 111.639 161.018 111.101 161.095 110.733L202.199 119.361C205.082 105.628 199.573 95.0125 194.245 88.2083L161.177 114.103ZM161.095 110.733C161.012 111.125 161.087 110.461 161.838 109.444C162.207 108.944 162.65 108.484 163.129 108.102C163.602 107.725 163.996 107.514 164.209 107.417L181.639 145.629C193.739 140.11 199.977 129.947 202.199 119.361L161.095 110.733ZM153.562 134.654C153.591 134.723 153.206 133.743 153.475 132.173C153.733 130.661 154.365 129.962 154.224 130.127L186.07 157.51C190.251 152.647 193.629 146.535 194.874 139.249C196.13 131.905 194.973 124.792 192.286 118.393L153.562 134.654ZM154.224 130.127C154.61 129.677 156.085 128.275 158.761 127.891L164.724 169.465C174.236 168.101 181.38 162.964 186.07 157.51L154.224 130.127ZM158.761 127.891C155.833 128.311 149.086 129.792 143.972 136.216C139.385 141.979 139.095 148.178 139.02 149.806L180.976 151.732C180.963 152.027 180.89 157.276 176.833 162.373C172.249 168.131 166.343 169.233 164.723 169.465L158.761 127.891ZM139.02 149.806C139.077 148.571 139.476 147.617 139.985 146.912C140.534 146.15 141.375 145.459 142.435 145.079L156.602 184.618C171.286 179.356 180.331 165.791 180.976 151.732L139.02 149.806ZM142.435 145.079C140.816 145.66 142.629 144.618 145.974 145.622L133.894 185.848C142.359 188.39 150.358 186.855 156.602 184.618L142.435 145.079ZM120.337 158.187C120.092 158.822 120.084 158.617 120.522 158.069C120.753 157.78 121.079 157.434 121.502 157.09C121.93 156.742 122.372 156.465 122.785 156.262L141.289 193.967C151.71 188.852 156.854 180.23 159.53 173.283L120.337 158.187ZM122.785 156.262C122.444 156.429 122.831 156.177 123.751 156.158C124.182 156.15 124.587 156.197 124.926 156.275C125.257 156.351 125.424 156.432 125.407 156.424L107.14 194.243C118.731 199.842 130.717 199.154 141.289 193.967L122.785 156.262ZM125.407 156.424C120.092 153.857 115.144 154.093 112.852 154.357C111.302 154.535 109.371 154.912 107.281 155.705C105.478 156.388 101.873 158.006 98.6605 161.619L130.049 189.525C127.005 192.949 123.66 194.412 122.169 194.977C120.39 195.652 118.823 195.947 117.648 196.082C116.439 196.221 115.088 196.254 113.618 196.1C112.321 195.964 109.909 195.581 107.14 194.243L125.407 156.424ZM98.6606 161.619C98.8812 161.371 99.5587 160.761 100.673 160.344C101.737 159.945 102.443 160.005 102.411 160.002L98.5107 201.82C110.04 202.896 121.513 199.126 130.049 189.525L98.6606 161.619ZM102.411 160.002C102.271 159.989 102.753 160.013 103.557 160.394C104.44 160.812 105.25 161.445 105.827 162.138L73.5496 189.011C80.7135 197.616 90.1296 201.039 98.5106 201.82L102.411 160.002ZM105.827 162.139C102.368 157.983 98.3004 156.267 96.4881 155.611C94.3055 154.821 92.3232 154.486 90.8099 154.343C88.4973 154.123 83.8441 154.023 78.8413 156.386L96.7838 194.361C94.1844 195.589 91.9367 195.968 90.7187 196.111C89.3377 196.273 88.0421 196.269 86.8443 196.155C85.6991 196.046 84.0722 195.784 82.1906 195.103C80.6792 194.556 76.8584 192.986 73.5494 189.011L105.827 162.139ZM78.8412 156.386C78.7836 156.414 78.9132 156.346 79.2142 156.281C79.5235 156.214 79.9132 156.171 80.3432 156.187C81.2767 156.222 81.7056 156.497 81.4617 156.365L61.4617 193.298C72.4041 199.223 84.8956 199.978 96.7839 194.361L78.8412 156.386ZM81.4617 156.365C82.0143 156.665 82.7411 157.208 83.391 158.026C84.0292 158.829 84.3116 159.542 84.4119 159.881L44.1294 171.769C46.807 180.842 52.6787 188.541 61.4617 193.298L81.4617 156.365ZM60.4913 145.168C60.2863 145.206 60.7517 145.093 61.617 145.286C62.5379 145.492 63.2032 145.888 63.4922 146.114L37.6094 179.191C46.9066 186.466 57.7288 188.371 68.0499 186.483L60.4913 145.168ZM63.4921 146.114C63.481 146.105 63.6043 146.2 63.7948 146.422C63.9899 146.648 64.2149 146.96 64.4229 147.35C64.8794 148.206 64.9734 148.9 64.9838 149.083L23.0524 151.482C23.707 162.921 29.0372 172.483 37.6095 179.191L63.4921 146.114ZM64.9838 149.083C64.7055 144.221 62.8605 140.692 61.8752 139.046C60.7255 137.125 59.4443 135.627 58.34 134.522C56.7104 132.891 52.9769 129.613 47.2245 128.292L37.8225 169.226C34.847 168.542 32.7492 167.345 31.6854 166.664C30.4715 165.887 29.4647 165.044 28.6299 164.209C27.8199 163.398 26.7974 162.22 25.8368 160.615C25.0405 159.285 23.3148 156.068 23.0524 151.482L64.9838 149.083ZM47.225 128.292C47.3065 128.31 47.6127 128.392 48.0515 128.615C48.4998 128.842 48.9602 129.154 49.3784 129.533C50.2514 130.324 50.3966 130.901 50.2197 130.455L11.1806 145.945C15.6418 157.189 24.4865 166.162 37.8221 169.226L47.225 128.292ZM112.039 102.806C112.307 102.631 112.498 102.579 112.619 102.559C112.757 102.536 112.909 102.539 113.07 102.578C113.232 102.618 113.402 102.694 113.568 102.817C113.721 102.931 113.927 103.128 114.135 103.488L150.507 82.4858C138.023 60.8661 110.203 53.8232 89.0514 67.6558L112.039 102.806ZM114.135 103.488C115.232 105.389 115.166 110.304 112.318 113.326L142.882 142.133C157.534 126.588 161.533 101.582 150.507 82.4857L114.135 103.488ZM112.318 113.326C111.577 114.112 109.453 115.503 105.925 115.968C102.433 116.428 99.6615 115.693 98.2584 114.872L77.0436 151.12C87.8433 157.44 100.338 159.068 111.415 157.608C122.457 156.152 134.205 151.339 142.882 142.133L112.318 113.326ZM98.2583 114.872C91.499 110.916 88.0626 102.488 90.3785 94.5872L50.0742 82.7737C42.404 108.942 53.4318 137.301 77.0436 151.12L98.2583 114.872ZM90.3785 94.5872C93.0017 85.6377 101.813 80.1093 108.302 80.4743L110.66 38.5406C82.9658 36.9827 57.6913 56.7862 50.0742 82.7737L90.3785 94.5872ZM108.302 80.4743C114.169 80.8043 120.877 79.3356 126.568 74.7915C132.427 70.1137 135.636 63.3957 136.151 56.4963L94.2669 53.3723C94.5642 49.3856 96.5119 45.0443 100.362 41.9699C104.045 39.0294 107.998 38.3908 110.66 38.5406L108.302 80.4743ZM136.151 56.4963C136.657 49.7051 134.565 42.5183 129.335 36.9342C124.258 31.5126 117.725 29.1707 111.923 28.6923L108.472 70.5503C105.931 70.3408 102.012 69.2025 98.6795 65.6437C95.1945 61.9225 93.9771 57.2577 94.2669 53.3724L136.151 56.4963ZM111.923 28.6923C98.7129 27.603 86.8469 30.9228 76.5446 36.3552L96.1343 73.5068C100.801 71.046 104.714 70.2404 108.472 70.5503L111.923 28.6923ZM76.5446 36.3552C50.31 50.1884 35.1812 77.903 38.2134 107.377L79.9929 103.078C78.746 90.9583 84.7895 79.4888 96.1343 73.5068L76.5446 36.3552ZM38.2134 107.377C39.7543 122.355 47.02 138.552 59.5839 150.494C72.7265 162.986 91.5741 170.635 114.185 167.223L107.919 125.693C99.0292 127.034 92.9515 124.265 88.5194 120.052C83.5086 115.289 80.5501 108.494 79.9929 103.078L38.2134 107.377ZM114.185 167.223C135.856 163.953 153.427 151.591 162.1 129.67L123.045 114.218C120.34 121.057 116.084 124.461 107.919 125.693L114.185 167.223ZM162.1 129.67C169.536 110.874 169.01 90.1609 155.227 71.7914L121.633 96.9983C125.23 101.793 126.041 106.646 123.045 114.218L162.1 129.67ZM155.227 71.7913C136.443 46.7558 99.2031 42.9026 76.5189 65.1097L105.9 95.1222C109.692 91.4096 117.433 91.4018 121.633 96.9983L155.227 71.7913ZM76.5189 65.1097C60.6552 80.6397 56.4806 106.632 69.9698 125.819L104.328 101.663C104.153 101.415 103.756 100.607 103.934 99.1282C104.112 97.6559 104.807 96.1924 105.9 95.1222L76.5189 65.1097ZM69.9698 125.819C83.396 144.916 113.317 150.139 131.128 131.265L100.581 102.44C101.996 100.94 103.381 101.02 103.453 101.028C103.532 101.037 103.923 101.086 104.328 101.663L69.9698 125.819ZM131.128 131.265C137.98 124.004 142.256 113.8 140.396 102.027L98.9107 108.58C98.7485 107.553 98.8014 106.173 99.2858 104.756C99.7441 103.415 100.374 102.659 100.581 102.44L131.128 131.265ZM140.396 102.027C138.211 88.1936 125.814 79.3385 112.934 80.3305L116.159 122.206C108.13 122.825 100.285 117.279 98.9107 108.58L140.396 102.027ZM112.934 80.3305C99.3279 81.3784 90.0757 92.2945 89.0841 104.266L130.941 107.733C130.379 114.516 124.86 121.536 116.159 122.206L112.934 80.3305ZM89.0841 104.266C89.175 103.169 89.788 99.0323 93.6998 95.2971C97.6387 91.5359 101.855 91.106 103.057 91.0713L104.269 133.054C109.441 132.904 116.666 131.439 122.705 125.673C128.716 119.933 130.519 112.823 130.941 107.733L89.0841 104.266ZM103.057 91.0713C105.329 91.0057 107.856 91.7368 109.979 93.3848C112.061 95.0021 113.121 96.9973 113.536 98.5463L72.9635 109.404C76.6463 123.165 88.8553 133.499 104.269 133.054L103.057 91.0713ZM113.536 98.5463C113.845 99.7026 113.7 100.77 113.431 101.465C113.178 102.121 112.928 102.196 113.233 101.965L87.8581 68.4968C75.7759 77.657 68.635 93.2302 72.9635 109.404L113.536 98.5463Z" fill="white" mask="url(#path-1-outside-1_209_13563)"/>
<path d="M100.42 85.3247C94.1975 90.043 91.454 97.2677 93.2491 103.975C94.6034 109.036 98.6856 112.206 103.663 112.062C107.632 111.948 109.681 109.991 110.012 106C110.227 103.405 112.093 101.457 114.546 101.268C116.971 101.081 119.248 102.736 119.653 105.303C120.359 109.771 118.891 113.635 115.854 116.852C108.262 124.898 93.8804 123.316 87.1485 113.741C80.1709 103.816 81.9367 89.1929 91.2089 80.1157C104.447 67.1559 126.937 69.0785 138.429 84.3946C147.12 95.9766 147.788 108.76 142.572 121.944C136.883 136.324 125.97 144.207 111.051 146.458C79.5509 151.211 61.2007 125.622 59.1026 105.227C56.9631 84.4304 67.5492 64.8384 86.3389 54.9307C93.8236 50.9841 101.713 48.9215 110.197 49.6211C113.458 49.89 115.425 52.0282 115.208 54.9341C114.991 57.8467 112.686 59.6875 109.481 59.5072C92.389 58.5458 75.346 71.2117 70.2258 88.6802C65.2328 105.715 72.4648 124.108 87.6505 132.995C99.8533 140.137 118.182 137.721 127.6 127.729C136.35 118.446 138.382 103.485 132.32 92.9866C125.754 81.6156 111.422 78.1173 100.42 85.3247Z" fill="#E6279B"/>
</svg>
