<svg width="70" height="70" viewBox="0 0 70 70" fill="none" xmlns="http://www.w3.org/2000/svg">
<path d="M4.65112 50.6926L4.65509 50.7033L4.65931 50.714C5.66994 53.2611 7.43022 54.9838 10.1023 55.6418C10.2996 57.9539 11.3563 59.8069 13.1609 61.2191C14.852 62.5423 16.7441 63.0328 18.7671 62.8424C19.392 64.3424 20.446 65.5329 21.9268 66.3348C24.3376 67.6403 26.8555 67.802 29.3871 66.6696C30.7303 68.1319 32.4519 68.7892 34.2722 68.959C36.7027 69.1857 38.8964 68.477 40.6373 66.6497C43.0643 67.7597 45.4676 67.6296 47.8308 66.4699C49.5111 65.6453 50.5496 64.3291 51.2487 62.8429C52.3579 62.9711 53.5798 62.7659 54.9388 62.2789C57.9159 61.2122 59.7663 58.4554 59.9202 55.6363C61.5583 55.364 62.887 54.4562 63.8688 53.3144C64.8564 52.1658 65.5184 50.8871 65.7577 49.4868C65.9509 48.3567 65.8613 47.1911 65.4933 46.0044C67.3549 44.8753 68.3842 43.1378 68.833 40.9999C69.325 38.656 68.6261 36.7317 67.4762 35.0687C68.6781 33.352 69.3432 31.3948 68.8201 29.0557C68.3476 26.9431 67.2814 25.2359 65.5173 24.0931C66.1316 22.0093 65.9127 19.9743 64.7127 18.0297C63.5675 16.174 61.955 14.9547 59.9304 14.4191C59.7003 11.8823 58.4537 9.88115 56.3208 8.5121C55.0791 7.71508 53.4435 6.81782 51.4303 7.27995C51.4311 7.27977 51.4246 7.28121 51.4103 7.28256C51.3954 7.28397 51.3755 7.28495 51.3515 7.28468C51.302 7.28413 51.248 7.27845 51.1982 7.26824C51.183 7.26513 51.1698 7.26191 51.1585 7.25885C51.0394 7.09703 50.9303 6.88826 50.7794 6.58606C50.7719 6.57106 50.7643 6.55576 50.7565 6.54019C50.6018 6.22965 50.3922 5.80906 50.092 5.44166C48.7391 3.78619 46.8306 2.72546 44.6918 2.68072C44.5809 2.6784 44.4635 2.67463 44.3406 2.67069C43.2705 2.63635 41.783 2.58863 40.4941 3.36593C38.9312 1.91004 37.054 1.06243 35.0946 1.0033C33.0487 0.941558 31.0252 1.74332 29.2991 3.41494C27.8364 2.78434 26.2289 2.38849 24.403 2.78745C21.8603 3.34301 19.789 4.63816 18.7229 7.28747C18.391 7.31426 18.0324 7.29917 17.598 7.28088C17.5736 7.27986 17.549 7.27882 17.5241 7.27778C14.8114 7.1644 12.9581 8.61655 11.5477 10.4476C10.6155 11.658 10.198 13.0136 10.1021 14.3864C8.20223 14.8763 6.59996 15.8646 5.43521 17.6749C4.53925 19.0674 4.01437 20.6538 4.17039 22.3389C4.19801 22.6373 4.25361 22.9456 4.29864 23.1953C4.30995 23.258 4.3206 23.3171 4.32997 23.3713C4.38302 23.6785 4.40481 23.8778 4.39502 24.0301C4.3868 24.1579 4.3592 24.2028 4.33532 24.2322C4.30227 24.2729 4.19055 24.3832 3.85605 24.499C3.6913 24.556 3.5723 24.6416 3.49767 24.7056C3.42444 24.7683 3.37266 24.8288 3.34685 24.8601C3.33363 24.876 3.32245 24.8903 3.3154 24.8993C0.719732 27.5915 0.167975 31.747 2.49861 34.9859C1.33202 36.5725 0.779565 38.439 1.08105 40.4914C1.41846 42.7884 2.49701 44.7518 4.46153 46.024C3.94655 47.5892 4.07467 49.137 4.65112 50.6926ZM3.30133 24.9174C3.29979 24.9193 3.30011 24.9189 3.30203 24.9165L3.30133 24.9174ZM33.8526 27.6584L33.8235 27.6774L33.7958 27.6984C30.9044 29.8905 29.5634 33.2683 30.4245 36.4858C31.094 38.9877 33.1649 40.6365 35.7149 40.5629C36.6854 40.5349 37.5785 40.2761 38.2491 39.6358C38.9184 38.9967 39.2213 38.1155 39.3017 37.145C39.3534 36.5212 39.7716 36.1448 40.2523 36.1078C40.7549 36.0691 41.2118 36.4086 41.2943 36.9313C41.5305 38.4264 41.0586 39.7181 39.9878 40.8528C37.3424 43.6562 32.1502 43.1769 29.692 39.6805C27.1238 36.0276 27.7375 30.537 31.2484 27.0999C36.2594 22.1943 44.8343 22.8955 49.2275 28.7505C52.5697 33.2049 52.8521 38.1004 50.8062 43.2716C48.6015 48.8441 44.4171 51.8827 38.5847 52.7627C32.4144 53.6936 27.5776 51.6611 24.1602 48.4128C20.7153 45.1384 18.7091 40.6202 18.2998 36.6415C17.4597 28.476 21.6102 20.7811 29.0064 16.8811C31.9597 15.3239 35.0246 14.5329 38.2992 14.8029C38.7733 14.842 39.0635 15.0074 39.2231 15.1778C39.3754 15.3404 39.4771 15.5784 39.4514 15.9235C39.4259 16.2651 39.2885 16.4919 39.1055 16.6381C38.9145 16.7906 38.6 16.9117 38.1421 16.8859C30.5869 16.4609 23.1647 22.0255 20.9337 29.6369C18.7466 37.0987 21.9106 45.1603 28.5759 49.0613C31.3165 50.6652 34.6966 51.1738 37.8821 50.7539C41.066 50.3342 44.1565 48.9731 46.2878 46.7118C50.1782 42.5842 51.1103 35.9346 48.3732 31.1945C45.383 26.016 38.8287 24.4041 33.8526 27.6584Z" fill="#FFCB27" stroke="white" stroke-width="2"/>
<path d="M34.3483 28.5339C31.7814 30.4802 30.6498 33.4604 31.3902 36.2272C31.9489 38.3148 33.6328 39.6225 35.6858 39.5632C37.3233 39.5159 38.1685 38.7088 38.3049 37.0623C38.3935 35.992 39.1635 35.1886 40.1752 35.1106C41.1757 35.0336 42.1146 35.716 42.2819 36.7751C42.573 38.6181 41.9673 40.2117 40.7148 41.539C37.5828 44.8581 31.6506 44.2053 28.8737 40.2555C25.9955 36.1616 26.7239 30.1296 30.5487 26.3852C36.0095 21.0393 45.2867 21.8324 50.0271 28.1503C53.6118 32.9278 53.8875 38.201 51.7359 43.6394C49.3891 49.571 44.8876 52.8229 38.7336 53.7514C25.7397 55.7119 18.1703 45.1565 17.3048 36.7437C16.4223 28.165 20.789 20.0833 28.5398 15.9964C31.6272 14.3685 34.8815 13.5176 38.3812 13.8062C39.7264 13.9171 40.5378 14.7991 40.4484 15.9978C40.3587 17.1993 39.4078 17.9586 38.0857 17.8842C31.0355 17.4876 24.0052 22.7123 21.8931 29.9181C19.8335 36.9449 22.8167 44.532 29.0808 48.1981C34.1145 51.1441 41.6751 50.1475 45.5599 46.0258C49.1692 42.1964 50.0077 36.0251 47.507 31.6945C44.7986 27.0039 38.8865 25.5609 34.3483 28.5339Z" fill="#E6279B"/>
</svg>
