<svg width="32" height="32" viewBox="0 0 32 32" fill="none" xmlns="http://www.w3.org/2000/svg">
<path fill-rule="evenodd" clip-rule="evenodd" d="M15.9998 4.80005C16.8835 4.80005 17.5998 5.51639 17.5998 6.40005V14.4L25.5998 14.4C26.4835 14.4 27.1998 15.1164 27.1998 16C27.1998 16.8837 26.4835 17.6 25.5998 17.6H17.5998V25.6C17.5998 26.4837 16.8835 27.2001 15.9998 27.2001C15.1161 27.2001 14.3998 26.4837 14.3998 25.6L14.3998 17.6H6.3998C5.51615 17.6 4.7998 16.8837 4.7998 16C4.7998 15.1164 5.51615 14.4 6.3998 14.4H14.3998V6.40005C14.3998 5.51639 15.1161 4.80005 15.9998 4.80005Z" fill="white"/>
</svg>
