<svg width="26" height="26" viewBox="0 0 26 26" fill="none" xmlns="http://www.w3.org/2000/svg">
<path fill-rule="evenodd" clip-rule="evenodd" d="M13.0002 25.8002C20.0694 25.8002 25.8002 20.0694 25.8002 13.0002C25.8002 5.93095 20.0694 0.200195 13.0002 0.200195C5.93095 0.200195 0.200195 5.93095 0.200195 13.0002C0.200195 20.0694 5.93095 25.8002 13.0002 25.8002ZM12.2877 8.46892C11.7967 8.1416 11.1655 8.11109 10.6452 8.38952C10.125 8.66795 9.80019 9.21012 9.80019 9.8002V16.2002C9.80019 16.7903 10.125 17.3324 10.6452 17.6109C11.1655 17.8893 11.7967 17.8588 12.2877 17.5315L17.0877 14.3315C17.5328 14.0347 17.8002 13.5352 17.8002 13.0002C17.8002 12.4652 17.5328 11.9657 17.0877 11.6689L12.2877 8.46892Z" fill="#FF285A"/>
</svg>
